<mxfile host="app.diagrams.net" modified="2022-02-26T02:18:03.410Z" agent="5.0 (Windows)" etag="WHldSwzKldW7QouXxd_V" version="16.6.4" type="github">
  <diagram name="Page-1" id="2c0d36ab-eaac-3732-788b-9136903baeff">
    <mxGraphModel dx="868" dy="432" grid="1" gridSize="10" guides="1" tooltips="1" connect="1" arrows="1" fold="1" page="1" pageScale="1.5" pageWidth="1169" pageHeight="827" background="none" math="0" shadow="0">
      <root>
        <mxCell id="0" />
        <mxCell id="1" parent="0" />
        <mxCell id="123" value="" style="fillColor=#e1d5e7;strokeColor=#9673a6;opacity=30;fontFamily=Times New Roman;fontStyle=0" parent="1" vertex="1">
          <mxGeometry x="747" y="175.50000000000003" width="210" height="99.99999999999994" as="geometry" />
        </mxCell>
        <mxCell id="2" value="Recursos en el desarrollo de un producto de software" style="rounded=1;fillColor=#ffe6cc;strokeColor=#d79b00;fontStyle=0;fontFamily=Times New Roman;fontSize=17;verticalAlign=middle;whiteSpace=wrap;" parent="1" vertex="1">
          <mxGeometry x="757" y="180" width="213" height="85.5" as="geometry" />
        </mxCell>
        <mxCell id="dCxlNheCWubttw0jM55R-172" value="" style="edgeStyle=orthogonalEdgeStyle;rounded=0;orthogonalLoop=1;jettySize=auto;html=1;fontSize=17;fontFamily=Times New Roman;fillColor=#e1d5e7;strokeColor=#9673a6;fontStyle=0" edge="1" parent="1" source="4" target="dCxlNheCWubttw0jM55R-171">
          <mxGeometry relative="1" as="geometry" />
        </mxCell>
        <mxCell id="dCxlNheCWubttw0jM55R-174" value="" style="edgeStyle=orthogonalEdgeStyle;rounded=0;orthogonalLoop=1;jettySize=auto;html=1;fontSize=17;fontFamily=Times New Roman;fillColor=#e1d5e7;strokeColor=#9673a6;fontStyle=0" edge="1" parent="1" source="4" target="dCxlNheCWubttw0jM55R-173">
          <mxGeometry relative="1" as="geometry" />
        </mxCell>
        <mxCell id="dCxlNheCWubttw0jM55R-176" value="" style="edgeStyle=orthogonalEdgeStyle;rounded=0;orthogonalLoop=1;jettySize=auto;html=1;fontSize=17;fontFamily=Times New Roman;fillColor=#e1d5e7;strokeColor=#9673a6;fontStyle=0" edge="1" parent="1" source="4" target="dCxlNheCWubttw0jM55R-175">
          <mxGeometry relative="1" as="geometry" />
        </mxCell>
        <mxCell id="dCxlNheCWubttw0jM55R-179" value="" style="edgeStyle=orthogonalEdgeStyle;rounded=0;orthogonalLoop=1;jettySize=auto;html=1;fontSize=17;fontFamily=Times New Roman;fillColor=#e1d5e7;strokeColor=#9673a6;fontStyle=0" edge="1" parent="1" source="4" target="dCxlNheCWubttw0jM55R-178">
          <mxGeometry relative="1" as="geometry" />
        </mxCell>
        <mxCell id="4" value="Software reutilizable" style="rounded=1;fillColor=#e1d5e7;strokeColor=#9673a6;fontStyle=0;fontFamily=Times New Roman;fontSize=14" parent="1" vertex="1">
          <mxGeometry x="1361.9999999999998" y="335.5" width="190" height="80" as="geometry" />
        </mxCell>
        <mxCell id="9" value="" style="edgeStyle=elbowEdgeStyle;elbow=vertical;strokeWidth=2;rounded=0;fontFamily=Times New Roman;fillColor=#e1d5e7;strokeColor=#9673a6;fontStyle=0" parent="1" source="2" target="4" edge="1">
          <mxGeometry x="337" y="215.5" width="100" height="100" as="geometry">
            <mxPoint x="337" y="315.5" as="sourcePoint" />
            <mxPoint x="437" y="215.5" as="targetPoint" />
          </mxGeometry>
        </mxCell>
        <mxCell id="dCxlNheCWubttw0jM55R-155" style="edgeStyle=orthogonalEdgeStyle;rounded=0;orthogonalLoop=1;jettySize=auto;html=1;entryX=0.5;entryY=0;entryDx=0;entryDy=0;entryPerimeter=0;fontSize=17;fontFamily=Times New Roman;fillColor=#e1d5e7;strokeColor=#9673a6;fontStyle=0" edge="1" parent="1" source="12" target="dCxlNheCWubttw0jM55R-154">
          <mxGeometry relative="1" as="geometry" />
        </mxCell>
        <mxCell id="12" value="De entorno" style="rounded=1;fillColor=#e1d5e7;strokeColor=#9673a6;fontStyle=0;fontFamily=Times New Roman;fontSize=14" parent="1" vertex="1">
          <mxGeometry x="756.9999999999999" y="335.5" width="190" height="80" as="geometry" />
        </mxCell>
        <mxCell id="dCxlNheCWubttw0jM55R-133" style="rounded=0;orthogonalLoop=1;jettySize=auto;html=1;entryX=0.481;entryY=-0.135;entryDx=0;entryDy=0;entryPerimeter=0;fontFamily=Times New Roman;fillColor=#e1d5e7;strokeColor=#9673a6;fontStyle=0" edge="1" parent="1" source="13" target="dCxlNheCWubttw0jM55R-131">
          <mxGeometry relative="1" as="geometry" />
        </mxCell>
        <mxCell id="13" value="Humanos" style="rounded=1;fillColor=#e1d5e7;strokeColor=#9673a6;fontStyle=0;fontFamily=Times New Roman;fontSize=14" parent="1" vertex="1">
          <mxGeometry x="240" y="335.5" width="190" height="80" as="geometry" />
        </mxCell>
        <mxCell id="59" value="" style="edgeStyle=elbowEdgeStyle;elbow=vertical;strokeWidth=2;rounded=0;fontFamily=Times New Roman;fillColor=#e1d5e7;strokeColor=#9673a6;fontStyle=0" parent="1" source="2" target="12" edge="1">
          <mxGeometry x="347" y="225.5" width="100" height="100" as="geometry">
            <mxPoint x="861.9999999999999" y="275.5" as="sourcePoint" />
            <mxPoint x="1466.9999999999998" y="345.5" as="targetPoint" />
          </mxGeometry>
        </mxCell>
        <mxCell id="61" value="" style="edgeStyle=elbowEdgeStyle;elbow=vertical;strokeWidth=2;rounded=0;fontFamily=Times New Roman;fillColor=#e1d5e7;strokeColor=#9673a6;fontStyle=0" parent="1" source="2" target="13" edge="1">
          <mxGeometry x="-23" y="135.5" width="100" height="100" as="geometry">
            <mxPoint x="-23" y="235.5" as="sourcePoint" />
            <mxPoint x="77" y="135.5" as="targetPoint" />
          </mxGeometry>
        </mxCell>
        <mxCell id="dCxlNheCWubttw0jM55R-151" style="edgeStyle=orthogonalEdgeStyle;rounded=0;orthogonalLoop=1;jettySize=auto;html=1;fontSize=17;fontFamily=Times New Roman;fillColor=#e1d5e7;strokeColor=#9673a6;fontStyle=0" edge="1" parent="1" source="dCxlNheCWubttw0jM55R-124" target="dCxlNheCWubttw0jM55R-139">
          <mxGeometry relative="1" as="geometry" />
        </mxCell>
        <mxCell id="dCxlNheCWubttw0jM55R-124" value="Gestor" style="rounded=1;fillColor=#e1d5e7;strokeColor=#9673a6;fontStyle=0;fontFamily=Times New Roman;fontSize=14" vertex="1" parent="1">
          <mxGeometry x="40" y="610" width="190" height="80" as="geometry" />
        </mxCell>
        <mxCell id="dCxlNheCWubttw0jM55R-152" style="edgeStyle=orthogonalEdgeStyle;rounded=0;orthogonalLoop=1;jettySize=auto;html=1;fontSize=17;fontFamily=Times New Roman;fillColor=#e1d5e7;strokeColor=#9673a6;fontStyle=0" edge="1" parent="1" source="dCxlNheCWubttw0jM55R-125" target="dCxlNheCWubttw0jM55R-139">
          <mxGeometry relative="1" as="geometry" />
        </mxCell>
        <mxCell id="dCxlNheCWubttw0jM55R-125" value="Analista" style="rounded=1;fillColor=#e1d5e7;strokeColor=#9673a6;fontStyle=0;fontFamily=Times New Roman;fontSize=14" vertex="1" parent="1">
          <mxGeometry x="235" y="610" width="190" height="80" as="geometry" />
        </mxCell>
        <mxCell id="dCxlNheCWubttw0jM55R-153" style="edgeStyle=orthogonalEdgeStyle;rounded=0;orthogonalLoop=1;jettySize=auto;html=1;fontSize=17;fontFamily=Times New Roman;fillColor=#e1d5e7;strokeColor=#9673a6;fontStyle=0" edge="1" parent="1" source="dCxlNheCWubttw0jM55R-126" target="dCxlNheCWubttw0jM55R-139">
          <mxGeometry relative="1" as="geometry" />
        </mxCell>
        <mxCell id="dCxlNheCWubttw0jM55R-126" value="Ingeniero de Software" style="rounded=1;fillColor=#e1d5e7;strokeColor=#9673a6;fontStyle=0;fontFamily=Times New Roman;fontSize=14" vertex="1" parent="1">
          <mxGeometry x="435" y="610" width="190" height="80" as="geometry" />
        </mxCell>
        <mxCell id="dCxlNheCWubttw0jM55R-148" style="edgeStyle=orthogonalEdgeStyle;rounded=0;orthogonalLoop=1;jettySize=auto;html=1;entryX=0.5;entryY=0;entryDx=0;entryDy=0;fontSize=17;fontFamily=Times New Roman;fillColor=#e1d5e7;strokeColor=#9673a6;fontStyle=0" edge="1" parent="1" source="dCxlNheCWubttw0jM55R-131" target="dCxlNheCWubttw0jM55R-124">
          <mxGeometry relative="1" as="geometry" />
        </mxCell>
        <mxCell id="dCxlNheCWubttw0jM55R-149" style="edgeStyle=orthogonalEdgeStyle;rounded=0;orthogonalLoop=1;jettySize=auto;html=1;entryX=0.5;entryY=0;entryDx=0;entryDy=0;fontSize=17;fontFamily=Times New Roman;fillColor=#e1d5e7;strokeColor=#9673a6;fontStyle=0" edge="1" parent="1" source="dCxlNheCWubttw0jM55R-131" target="dCxlNheCWubttw0jM55R-125">
          <mxGeometry relative="1" as="geometry" />
        </mxCell>
        <mxCell id="dCxlNheCWubttw0jM55R-150" style="edgeStyle=orthogonalEdgeStyle;rounded=0;orthogonalLoop=1;jettySize=auto;html=1;fontSize=17;fontFamily=Times New Roman;fillColor=#e1d5e7;strokeColor=#9673a6;fontStyle=0" edge="1" parent="1" source="dCxlNheCWubttw0jM55R-131" target="dCxlNheCWubttw0jM55R-126">
          <mxGeometry relative="1" as="geometry" />
        </mxCell>
        <mxCell id="dCxlNheCWubttw0jM55R-131" value="Se establecen perfiles y posiciones" style="text;html=1;align=center;verticalAlign=middle;resizable=0;points=[];autosize=1;fontSize=17;fontFamily=Times New Roman;fontStyle=0" vertex="1" parent="1">
          <mxGeometry x="210" y="465" width="250" height="30" as="geometry" />
        </mxCell>
        <mxCell id="dCxlNheCWubttw0jM55R-147" value="" style="edgeStyle=orthogonalEdgeStyle;rounded=0;orthogonalLoop=1;jettySize=auto;html=1;fontSize=17;fontFamily=Times New Roman;fillColor=#e1d5e7;strokeColor=#9673a6;fontStyle=0" edge="1" parent="1" source="dCxlNheCWubttw0jM55R-137" target="dCxlNheCWubttw0jM55R-146">
          <mxGeometry relative="1" as="geometry" />
        </mxCell>
        <mxCell id="dCxlNheCWubttw0jM55R-137" value="Se determina el nÃºmero de especialistas." style="rounded=1;whiteSpace=wrap;html=1;fontSize=14;fontFamily=Times New Roman;fillColor=#e1d5e7;strokeColor=#9673a6;fontStyle=0;" vertex="1" parent="1">
          <mxGeometry x="270" y="860" width="120" height="60" as="geometry" />
        </mxCell>
        <mxCell id="dCxlNheCWubttw0jM55R-143" style="edgeStyle=orthogonalEdgeStyle;rounded=0;orthogonalLoop=1;jettySize=auto;html=1;fontSize=17;fontFamily=Times New Roman;fillColor=#e1d5e7;strokeColor=#9673a6;fontStyle=0" edge="1" parent="1" source="dCxlNheCWubttw0jM55R-139" target="dCxlNheCWubttw0jM55R-137">
          <mxGeometry relative="1" as="geometry" />
        </mxCell>
        <mxCell id="dCxlNheCWubttw0jM55R-139" value="De acuerdo al tamaÃ±o del proyecto" style="text;html=1;align=center;verticalAlign=middle;resizable=0;points=[];autosize=1;fontSize=17;fontFamily=Times New Roman;fontStyle=0" vertex="1" parent="1">
          <mxGeometry x="205" y="780" width="250" height="30" as="geometry" />
        </mxCell>
        <mxCell id="dCxlNheCWubttw0jM55R-146" value="Se asigna el lugar de trabajo" style="whiteSpace=wrap;html=1;fontSize=14;fontFamily=Times New Roman;fillColor=#e1d5e7;strokeColor=#9673a6;rounded=1;fontStyle=0;" vertex="1" parent="1">
          <mxGeometry x="270" y="1000" width="120" height="60" as="geometry" />
        </mxCell>
        <mxCell id="dCxlNheCWubttw0jM55R-157" style="edgeStyle=orthogonalEdgeStyle;rounded=0;orthogonalLoop=1;jettySize=auto;html=1;entryX=0.5;entryY=0;entryDx=0;entryDy=0;fontSize=17;fontFamily=Times New Roman;fillColor=#e1d5e7;strokeColor=#9673a6;fontStyle=0" edge="1" parent="1" source="dCxlNheCWubttw0jM55R-154" target="dCxlNheCWubttw0jM55R-156">
          <mxGeometry relative="1" as="geometry" />
        </mxCell>
        <mxCell id="dCxlNheCWubttw0jM55R-159" style="edgeStyle=orthogonalEdgeStyle;rounded=0;orthogonalLoop=1;jettySize=auto;html=1;entryX=0.5;entryY=0;entryDx=0;entryDy=0;fontSize=17;fontFamily=Times New Roman;fillColor=#e1d5e7;strokeColor=#9673a6;fontStyle=0" edge="1" parent="1" source="dCxlNheCWubttw0jM55R-154" target="dCxlNheCWubttw0jM55R-158">
          <mxGeometry relative="1" as="geometry" />
        </mxCell>
        <mxCell id="dCxlNheCWubttw0jM55R-154" value="Compuesto por" style="text;html=1;align=center;verticalAlign=middle;resizable=0;points=[];autosize=1;fontSize=17;fontFamily=Times New Roman;fontStyle=0" vertex="1" parent="1">
          <mxGeometry x="792" y="510" width="120" height="30" as="geometry" />
        </mxCell>
        <mxCell id="dCxlNheCWubttw0jM55R-161" value="" style="edgeStyle=orthogonalEdgeStyle;rounded=0;orthogonalLoop=1;jettySize=auto;html=1;fontSize=17;fontFamily=Times New Roman;fillColor=#e1d5e7;strokeColor=#9673a6;fontStyle=0" edge="1" parent="1" source="dCxlNheCWubttw0jM55R-156" target="dCxlNheCWubttw0jM55R-160">
          <mxGeometry relative="1" as="geometry" />
        </mxCell>
        <mxCell id="dCxlNheCWubttw0jM55R-156" value="Hardware" style="rounded=1;fillColor=#e1d5e7;strokeColor=#9673a6;fontStyle=0;fontFamily=Times New Roman;fontSize=14" vertex="1" parent="1">
          <mxGeometry x="660" y="600" width="80" height="60" as="geometry" />
        </mxCell>
        <mxCell id="dCxlNheCWubttw0jM55R-164" value="" style="edgeStyle=orthogonalEdgeStyle;rounded=0;orthogonalLoop=1;jettySize=auto;html=1;fontSize=17;fontFamily=Times New Roman;fillColor=#e1d5e7;strokeColor=#9673a6;fontStyle=0" edge="1" parent="1" source="dCxlNheCWubttw0jM55R-158" target="dCxlNheCWubttw0jM55R-163">
          <mxGeometry relative="1" as="geometry" />
        </mxCell>
        <mxCell id="dCxlNheCWubttw0jM55R-158" value="Software" style="rounded=1;fillColor=#e1d5e7;strokeColor=#9673a6;fontStyle=0;fontFamily=Times New Roman;fontSize=14" vertex="1" parent="1">
          <mxGeometry x="980" y="600" width="80" height="60" as="geometry" />
        </mxCell>
        <mxCell id="dCxlNheCWubttw0jM55R-167" value="" style="edgeStyle=orthogonalEdgeStyle;rounded=0;orthogonalLoop=1;jettySize=auto;html=1;fontSize=17;fontFamily=Times New Roman;fillColor=#e1d5e7;strokeColor=#9673a6;fontStyle=0" edge="1" parent="1" source="dCxlNheCWubttw0jM55R-160" target="dCxlNheCWubttw0jM55R-166">
          <mxGeometry relative="1" as="geometry" />
        </mxCell>
        <mxCell id="dCxlNheCWubttw0jM55R-160" value="Proporciona la plataforma para soportar el software" style="whiteSpace=wrap;html=1;fontSize=14;fontFamily=Times New Roman;fillColor=#e1d5e7;strokeColor=#9673a6;rounded=1;fontStyle=0;" vertex="1" parent="1">
          <mxGeometry x="640" y="740" width="170" height="100" as="geometry" />
        </mxCell>
        <mxCell id="dCxlNheCWubttw0jM55R-170" value="" style="edgeStyle=orthogonalEdgeStyle;rounded=0;orthogonalLoop=1;jettySize=auto;html=1;fontSize=17;fontFamily=Times New Roman;fillColor=#e1d5e7;strokeColor=#9673a6;fontStyle=0" edge="1" parent="1" source="dCxlNheCWubttw0jM55R-163" target="dCxlNheCWubttw0jM55R-169">
          <mxGeometry relative="1" as="geometry" />
        </mxCell>
        <mxCell id="dCxlNheCWubttw0jM55R-163" value="Requerido para la producciÃ³n de productos" style="whiteSpace=wrap;html=1;fontSize=14;fontFamily=Times New Roman;fillColor=#e1d5e7;strokeColor=#9673a6;rounded=1;fontStyle=0;" vertex="1" parent="1">
          <mxGeometry x="910" y="743.75" width="160" height="96.25" as="geometry" />
        </mxCell>
        <mxCell id="dCxlNheCWubttw0jM55R-166" value="Debe especificarse como parte de la planificaciÃ³n." style="whiteSpace=wrap;html=1;fontSize=14;fontFamily=Times New Roman;fillColor=#e1d5e7;strokeColor=#9673a6;rounded=1;fontStyle=0;" vertex="1" parent="1">
          <mxGeometry x="652.5" y="940" width="145" height="80" as="geometry" />
        </mxCell>
        <mxCell id="dCxlNheCWubttw0jM55R-169" value="Puede requerir acceso a elementos hardware especiales" style="whiteSpace=wrap;html=1;fontSize=14;fontFamily=Times New Roman;fillColor=#e1d5e7;strokeColor=#9673a6;rounded=1;fontStyle=0;" vertex="1" parent="1">
          <mxGeometry x="930" y="938.13" width="150" height="81.87" as="geometry" />
        </mxCell>
        <mxCell id="dCxlNheCWubttw0jM55R-181" value="" style="edgeStyle=orthogonalEdgeStyle;rounded=0;orthogonalLoop=1;jettySize=auto;html=1;fontSize=17;fontFamily=Times New Roman;fillColor=#e1d5e7;strokeColor=#9673a6;fontStyle=0" edge="1" parent="1" source="dCxlNheCWubttw0jM55R-171" target="dCxlNheCWubttw0jM55R-180">
          <mxGeometry relative="1" as="geometry" />
        </mxCell>
        <mxCell id="dCxlNheCWubttw0jM55R-171" value="Comerciales" style="whiteSpace=wrap;html=1;fontSize=14;fontFamily=Times New Roman;fillColor=#e1d5e7;strokeColor=#9673a6;rounded=1;fontStyle=0;" vertex="1" parent="1">
          <mxGeometry x="1119.9999999999998" y="495" width="120" height="60" as="geometry" />
        </mxCell>
        <mxCell id="dCxlNheCWubttw0jM55R-183" value="" style="edgeStyle=orthogonalEdgeStyle;rounded=0;orthogonalLoop=1;jettySize=auto;html=1;fontSize=17;fontFamily=Times New Roman;fillColor=#e1d5e7;strokeColor=#9673a6;fontStyle=0" edge="1" parent="1" source="dCxlNheCWubttw0jM55R-173" target="dCxlNheCWubttw0jM55R-182">
          <mxGeometry relative="1" as="geometry" />
        </mxCell>
        <mxCell id="dCxlNheCWubttw0jM55R-173" value="De experiencia completa" style="whiteSpace=wrap;html=1;fontSize=14;fontFamily=Times New Roman;fillColor=#e1d5e7;strokeColor=#9673a6;rounded=1;fontStyle=0;" vertex="1" parent="1">
          <mxGeometry x="1289.9999999999998" y="495" width="120" height="60" as="geometry" />
        </mxCell>
        <mxCell id="dCxlNheCWubttw0jM55R-190" style="edgeStyle=orthogonalEdgeStyle;rounded=0;orthogonalLoop=1;jettySize=auto;html=1;fontSize=17;fontFamily=Times New Roman;fillColor=#e1d5e7;strokeColor=#9673a6;fontStyle=0" edge="1" parent="1" source="dCxlNheCWubttw0jM55R-175" target="dCxlNheCWubttw0jM55R-182">
          <mxGeometry relative="1" as="geometry" />
        </mxCell>
        <mxCell id="dCxlNheCWubttw0jM55R-175" value="Experiencia parcial" style="whiteSpace=wrap;html=1;fontSize=14;fontFamily=Times New Roman;fillColor=#e1d5e7;strokeColor=#9673a6;rounded=1;fontStyle=0;" vertex="1" parent="1">
          <mxGeometry x="1489.9999999999998" y="495" width="120" height="60" as="geometry" />
        </mxCell>
        <mxCell id="dCxlNheCWubttw0jM55R-195" value="" style="edgeStyle=orthogonalEdgeStyle;rounded=0;orthogonalLoop=1;jettySize=auto;html=1;fontSize=17;fontFamily=Times New Roman;fillColor=#e1d5e7;strokeColor=#9673a6;fontStyle=0" edge="1" parent="1" source="dCxlNheCWubttw0jM55R-178" target="dCxlNheCWubttw0jM55R-194">
          <mxGeometry relative="1" as="geometry" />
        </mxCell>
        <mxCell id="dCxlNheCWubttw0jM55R-178" value="Nuevos" style="whiteSpace=wrap;html=1;fontSize=14;fontFamily=Times New Roman;fillColor=#e1d5e7;strokeColor=#9673a6;rounded=1;fontStyle=0;" vertex="1" parent="1">
          <mxGeometry x="1633.9999999999998" y="495" width="120" height="60" as="geometry" />
        </mxCell>
        <mxCell id="dCxlNheCWubttw0jM55R-180" value="Software existente que puede adquirirse de una tercera parte" style="whiteSpace=wrap;html=1;fontSize=14;fontFamily=Times New Roman;fillColor=#e1d5e7;strokeColor=#9673a6;rounded=1;fontStyle=0;" vertex="1" parent="1">
          <mxGeometry x="1105" y="638.75" width="150" height="105" as="geometry" />
        </mxCell>
        <mxCell id="dCxlNheCWubttw0jM55R-185" value="" style="edgeStyle=orthogonalEdgeStyle;rounded=0;orthogonalLoop=1;jettySize=auto;html=1;fontSize=17;fontFamily=Times New Roman;fillColor=#e1d5e7;strokeColor=#9673a6;fontStyle=0" edge="1" parent="1" source="dCxlNheCWubttw0jM55R-182" target="dCxlNheCWubttw0jM55R-184">
          <mxGeometry relative="1" as="geometry" />
        </mxCell>
        <mxCell id="dCxlNheCWubttw0jM55R-182" value="Son especificaciones, diseÃ±os, cÃ³digo o datos de prueba existentes." style="whiteSpace=wrap;html=1;fontSize=14;fontFamily=Times New Roman;fillColor=#e1d5e7;strokeColor=#9673a6;rounded=1;fontStyle=0;" vertex="1" parent="1">
          <mxGeometry x="1387" y="633.75" width="140" height="115" as="geometry" />
        </mxCell>
        <mxCell id="dCxlNheCWubttw0jM55R-187" value="" style="edgeStyle=orthogonalEdgeStyle;rounded=0;orthogonalLoop=1;jettySize=auto;html=1;fontSize=17;fontFamily=Times New Roman;fillColor=#e1d5e7;strokeColor=#9673a6;fontStyle=0" edge="1" parent="1" source="dCxlNheCWubttw0jM55R-184" target="dCxlNheCWubttw0jM55R-186">
          <mxGeometry relative="1" as="geometry" />
        </mxCell>
        <mxCell id="dCxlNheCWubttw0jM55R-192" style="edgeStyle=orthogonalEdgeStyle;rounded=0;orthogonalLoop=1;jettySize=auto;html=1;entryX=0.5;entryY=0;entryDx=0;entryDy=0;fontSize=17;fontFamily=Times New Roman;fillColor=#e1d5e7;strokeColor=#9673a6;fontStyle=0" edge="1" parent="1" source="dCxlNheCWubttw0jM55R-184" target="dCxlNheCWubttw0jM55R-191">
          <mxGeometry relative="1" as="geometry" />
        </mxCell>
        <mxCell id="dCxlNheCWubttw0jM55R-184" value="Para proyectos anteriores que son similares al software" style="whiteSpace=wrap;html=1;fontSize=14;fontFamily=Times New Roman;fillColor=#e1d5e7;strokeColor=#9673a6;rounded=1;fontStyle=0;" vertex="1" parent="1">
          <mxGeometry x="1387" y="800" width="140" height="82.5" as="geometry" />
        </mxCell>
        <mxCell id="dCxlNheCWubttw0jM55R-186" value="Los miembros del equipo de software tienen mucha experiencia en el area" style="whiteSpace=wrap;html=1;fontSize=16;fontFamily=Times New Roman;fillColor=#e1d5e7;strokeColor=#9673a6;rounded=1;fontStyle=0;" vertex="1" parent="1">
          <mxGeometry x="1212" y="960" width="158" height="110" as="geometry" />
        </mxCell>
        <mxCell id="dCxlNheCWubttw0jM55R-191" value="Los miembros del equipo de software tienen experiencia limitada en el area" style="whiteSpace=wrap;html=1;fontSize=17;fontFamily=Times New Roman;fillColor=#e1d5e7;strokeColor=#9673a6;rounded=1;fontStyle=0;" vertex="1" parent="1">
          <mxGeometry x="1552" y="960" width="178" height="110" as="geometry" />
        </mxCell>
        <mxCell id="dCxlNheCWubttw0jM55R-194" value="El equipo de software debe construir especÃ­ficamente para las necesidades del proyecto" style="whiteSpace=wrap;html=1;fontSize=16;fontFamily=Times New Roman;fillColor=#e1d5e7;strokeColor=#9673a6;rounded=1;fontStyle=0;" vertex="1" parent="1">
          <mxGeometry x="1560" y="625" width="180" height="155" as="geometry" />
        </mxCell>
      </root>
    </mxGraphModel>
  </diagram>
</mxfile>
